<?xml version="1.0" encoding="UTF-8"?>
<svg id="_圖層_2" data-name="圖層 2" xmlns="http://www.w3.org/2000/svg" viewBox="0 0 95.7 36.6">
  <defs>
    <style>
      .cls-1, .cls-2 {
        fill: #fff;
      }

      .cls-2 {
        fill-rule: evenodd;
      }
    </style>
  </defs>
  <g id="_圖層_1-2" data-name="圖層 1">
    <path class="cls-2" d="M21.1,20.5c-.9-.2-1.7-.4-2.6-.6-3.4-.8-6.7-1.6-9-3-2.1-1.2-3.3-2.6-3.4-4.1-.2-1.6.8-3.4,2.8-5.4C14,2.4,24.5-.6,34.4,0c.6,0,1.2,0,1.8.2,2.1.2,4.1.7,5.7,1.1,4.2,1.1,8.6,2.1,12.7,3.2,7.7,1.9,15.7,4,23.7,5.9,2.8.7,5.8,1.1,8.8,1.6.9.1,1.7.3,2.6.4-4.1,1.1-8.4,1.4-12.8,1.1-1.2,0-2.4-.2-3.6-.4-1.9-.3-3.8-.7-6.1-1.2-5.3-1.3-10.7-2.7-15.9-4-5.2-1.3-10.5-2.7-15.8-4-1.2-.3-2.5-.5-3.7-.6-3.9-.3-8,.4-11.8,2-3.2,1.3-5.3,3.1-5.9,5-.3.9-.2,1.9.3,2.7.8,1.3,2.6,2.2,5.2,2.8h.1s9.6-6.7,9.6-6.7l-7.7-1.9c2.3-1.3,5.5-1.9,8.8-1.6,1.1,0,2.2.2,3.2.5l5.9,1.5-4.4,3.1h0s-.1,0-.1,0l-13.9,9.8Z"/>
    <path class="cls-2" d="M30.2,22.3c-2.1-.1-3.9-.5-5.6-1l4.3-3c1.1.2,2.1.5,3.1.8,2.6.7,5.2,1.3,8.3,1.6.7,0,1.4,0,2.1,0-3,1.3-7.8,1.9-12.3,1.6h0ZM46.6,19.4c-.8,0-1.5-.1-2.2-.2-3.3-.5-6.2-1.2-9.4-1.9-1.1-.3-2.3-.5-3.5-.8l4.5-3.1c.6.1,1.1.3,1.7.4,1.3.3,2.7.7,4,1l.8.2c4.2,1,8.5,2,12.9,2.9.5,0,1,.2,1.8.2.3,0,.7,0,1.1,0-3.9,1.2-7.8,1.6-11.6,1.4M61.9,16.7c-3.9-.3-7.3-1.1-10.5-1.9l-12.8-3.2,4.4-3.1c6.6,1.7,13,3.3,19.5,4.9,3.1.8,6.3,1.6,10.3,1.9.5,0,1,0,1.4,0-3.5,1.1-7,1.6-10.8,1.5-.5,0-1,0-1.4,0"/>
    <path class="cls-1" d="M34.7,36.6c-.9,0-1.6-.3-2.1-.9-.6-.7-.7-1.7-.3-3v-.2c.5-1.3,1.3-2.2,2.3-3,.9-.6,1.8-.9,2.6-.9h7.9c.9,0,1.6.3,2.1.9.6.7.7,1.7.3,3v.2c-.5,1.3-1.3,2.2-2.3,3-.9.6-1.8.9-2.6.9h-7.9ZM36.6,30.9c0,0-.1,0-.2,0,0,0-.2,0-.3,0-.2,0-.4.1-.6.2-.6.3-.9.8-1.2,1.5-.2.7-.2,1.2.1,1.5.1,0,.3.2.4.2,0,0,.1,0,.2,0,0,0,.1,0,.2,0h7.9c0,0,.1,0,.2,0,0,0,.2,0,.3,0,.2,0,.4-.1.6-.2.6-.3.9-.8,1.2-1.5.2-.7.2-1.2-.1-1.5-.1-.1-.3-.2-.4-.2,0,0-.1,0-.2,0,0,0-.1,0-.2,0h-7.9Z"/>
    <path class="cls-1" d="M47.3,36.6l.7-2.2h11.7c.2,0,.4,0,.5-.2,0,0,0-.1.1-.2,0,0,0,0,0,0h0s0-.2,0-.2h-12.2l.8-2.4c.3-.9.8-1.6,1.5-2.1.6-.4,1.2-.6,1.8-.6h11.9l-.7,2.2h-11.7c-.2,0-.4,0-.5.2,0,0,0,.1-.1.2,0,0,0,0,0,0v.2c0,0,12.2,0,12.2,0l-.8,2.4c-.3.9-.8,1.6-1.5,2.1-.6.4-1.2.6-1.8.6h-11.9Z"/>
    <path class="cls-1" d="M75,36.6l.3-1h-8.6l-.4-2.2h9.8l.3-.9c.2-.7.2-1.2-.1-1.5-.1-.1-.3-.2-.4-.2,0,0-.1,0-.2,0,0,0-.1,0-.2,0h-8.6l-1.9,5.8h-2.1l2.6-8h10.6c.9,0,1.6.3,2.1.9.6.7.7,1.8.3,3.1l-1.3,4h-2.1Z"/>
    <path class="cls-1" d="M84,36.6l1.9-5.8h-6l.7-2.2h13.5c0,0,.2,0,.3,0,.2,0,.5,0,.7,0,.2,0,.4,0,.6,0,0,0-.4.5-1,.8-.4.2-.9.4-1.5.6-1,.4-1.9.6-2.9.8-.4,0-.7,0-1.1.1-.5,0-.9,0-1.4,0l-1.9,5.8h-2.1Z"/>
    <path class="cls-1" d="M0,36.6l1.3-4c.4-1.3,1.2-2.3,2.3-3,.9-.6,1.8-.9,2.6-.9h25.6c.1,0,.3,0,.5,0,.2,0,.3,0,.5,0,0,0-.2.4-.8.8-1.4.7-2.9,1.2-4.3,1.4-.3,0-.7,0-1.1.1-.7,0-1.4,0-2.2,0-.4,0-.8,0-1.2,0s-1.9,0-2.3,0H5.6c0,0-.1,0-.2,0,0,0-.2,0-.3,0-.2,0-.4.1-.6.2-.5.3-.9.8-1.2,1.5l-.6,1.7h10.1l.6-1.9h2.1l-1.4,4.1H0Z"/>
    <path class="cls-1" d="M18.9,36.6h-.8s0,0,0,0h-2.7l.8-2.4c.3-.9.8-1.6,1.5-2.1.6-.4,1.2-.6,1.8-.6h11.3c.1,0,.3,0,.5,0,.2,0,.3,0,.5,0,0,0-.2.4-.8.8-1.4.7-2.9,1.2-4.3,1.4-.4,0-.7,0-1.1.1-.7,0-1.3,0-2.2,0-.4,0-.8,0-1.3,0s-.7,0-1.1,0c-.4,0-.8,0-1.2,0h-.8s0,0,0,0h-.3s0,0,0,0c0,0-.2,0-.2,0,0,0-.1,0-.2.1,0,0-.1.2-.2.3h0c0,.1,11.8.1,11.8.1.1,0,.3,0,.4,0,.2,0,.3,0,.5,0,0,0-.2.4-.8.7-1.4.7-2.9,1.2-4.4,1.4-.4,0-.7,0-1.1.1-.6,0-1.1,0-1.9,0-.5,0-1.1,0-1.6,0s-1.9,0-2.3,0"/>
  </g>
</svg>