<svg width="32" height="23" viewBox="0 0 32 23" fill="none" xmlns="http://www.w3.org/2000/svg">
<path d="M32 11.4009C32 11.323 32 11.2345 31.9964 11.1319C31.9929 10.8452 31.9857 10.5231 31.9786 10.1797C31.95 9.19221 31.9 8.20822 31.8214 7.28085C31.7143 6.00308 31.5571 4.93767 31.3429 4.13773C31.1167 3.30293 30.6735 2.54157 30.0574 1.92975C29.4413 1.31793 28.674 0.877087 27.8321 0.651277C26.8214 0.382271 24.8429 0.215912 22.0571 0.113266C20.7321 0.0637118 19.3143 0.0318557 17.8964 0.014158C17.4 0.00707889 16.9393 0.00353955 16.525 0H15.475C15.0607 0.00353955 14.6 0.00707889 14.1036 0.014158C12.6857 0.0318557 11.2679 0.0637118 9.94286 0.113266C7.15714 0.219452 5.175 0.385811 4.16786 0.651277C3.32572 0.876532 2.5581 1.31719 1.94194 1.9291C1.32578 2.541 0.882715 3.30266 0.657143 4.13773C0.439286 4.93767 0.285714 6.00308 0.178571 7.28085C0.1 8.20822 0.0499999 9.19221 0.0214285 10.1797C0.0107142 10.5231 0.0071428 10.8452 0.00357137 11.1319C0.00357137 11.2345 0 11.323 0 11.4009V11.5991C0 11.677 -5.44957e-08 11.7655 0.00357137 11.8681C0.0071428 12.1548 0.0142857 12.4769 0.0214285 12.8203C0.0499999 13.8078 0.1 14.7918 0.178571 15.7191C0.285714 16.9969 0.442857 18.0623 0.657143 18.8623C1.11429 20.5577 2.45714 21.8957 4.16786 22.3487C5.175 22.6177 7.15714 22.7841 9.94286 22.8867C11.2679 22.9363 12.6857 22.9681 14.1036 22.9858C14.6 22.9929 15.0607 22.9965 15.475 23H16.525C16.9393 22.9965 17.4 22.9929 17.8964 22.9858C19.3143 22.9681 20.7321 22.9363 22.0571 22.8867C24.8429 22.7805 26.825 22.6142 27.8321 22.3487C29.5429 21.8957 30.8857 20.5613 31.3429 18.8623C31.5607 18.0623 31.7143 16.9969 31.8214 15.7191C31.9 14.7918 31.95 13.8078 31.9786 12.8203C31.9893 12.4769 31.9929 12.1548 31.9964 11.8681C31.9964 11.7655 32 11.677 32 11.5991V11.4009ZM29.4286 11.5849C29.4286 11.6593 29.4286 11.7407 29.425 11.8363C29.4214 12.1123 29.4143 12.4167 29.4071 12.7459C29.3821 13.6874 29.3321 14.629 29.2571 15.5032C29.1607 16.643 29.025 17.5774 28.8571 18.2039C28.6357 19.0215 27.9857 19.6693 27.1643 19.8852C26.4143 20.0834 24.525 20.2427 21.9571 20.3383C20.6571 20.3878 19.2571 20.4197 17.8607 20.4374C17.3714 20.4444 16.9179 20.448 16.5107 20.448H15.4893L14.1393 20.4374C12.7429 20.4197 11.3464 20.3878 10.0429 20.3383C7.475 20.2391 5.58214 20.0834 4.83571 19.8852C4.01429 19.6657 3.36429 19.0215 3.14286 18.2039C2.975 17.5774 2.83929 16.643 2.74286 15.5032C2.66786 14.629 2.62143 13.6874 2.59286 12.7459C2.58214 12.4167 2.57857 12.1088 2.575 11.8363C2.575 11.7407 2.57143 11.6557 2.57143 11.5849V11.4151C2.57143 11.3407 2.57143 11.2593 2.575 11.1637C2.57857 10.8877 2.58571 10.5833 2.59286 10.2541C2.61786 9.31256 2.66786 8.37104 2.74286 7.49677C2.83929 6.35703 2.975 5.42259 3.14286 4.79609C3.36429 3.97845 4.01429 3.33072 4.83571 3.1148C5.58571 2.91659 7.475 2.75731 10.0429 2.66174C11.3429 2.61219 12.7429 2.58033 14.1393 2.56263C14.6286 2.55556 15.0821 2.55202 15.4893 2.55202H16.5107L17.8607 2.56263C19.2571 2.58033 20.6536 2.61219 21.9571 2.66174C24.525 2.76085 26.4179 2.91659 27.1643 3.1148C27.9857 3.33426 28.6357 3.97845 28.8571 4.79609C29.025 5.42259 29.1607 6.35703 29.2571 7.49677C29.3321 8.37104 29.3786 9.31256 29.4071 10.2541C29.4179 10.5833 29.4214 10.8912 29.425 11.1637C29.425 11.2593 29.4286 11.3443 29.4286 11.4151V11.5849ZM12.8214 16.243L21.1071 11.4646L12.8214 6.757V16.243Z" fill="#B31313"/>
</svg>
